<svg width="50" height="51" viewBox="0 0 50 51" fill="none" xmlns="http://www.w3.org/2000/svg">
<path d="M27.57 0.79165C29.3943 0.78465 31.2185 0.802984 33.0422 0.846647L33.5272 0.864146C34.0872 0.884145 34.6397 0.909144 35.3071 0.939142C37.967 1.06414 39.7819 1.48411 41.3743 2.10158C43.0242 2.73655 44.4142 3.59651 45.8041 4.98643C47.075 6.23539 48.0585 7.74616 48.6864 9.41371C49.3039 11.0061 49.7239 12.8235 49.8489 15.4834C49.8789 16.1484 49.9039 16.7033 49.9239 17.2633L49.9389 17.7483C49.9833 19.5712 50.0025 21.3946 49.9964 23.218L49.9989 25.0829V28.3577C50.005 30.182 49.9859 32.0062 49.9414 33.8299L49.9264 34.3149C49.9064 34.8749 49.8814 35.4274 49.8514 36.0948C49.7264 38.7547 49.3014 40.5696 48.6864 42.162C48.0606 43.8313 47.0768 45.3433 45.8041 46.5918C44.5541 47.8625 43.0425 48.8461 41.3743 49.4741C39.7819 50.0916 37.967 50.5116 35.3071 50.6366C34.6397 50.6666 34.0872 50.6916 33.5272 50.7116L33.0422 50.7266C31.2185 50.771 29.3943 50.7902 27.57 50.7841L25.7051 50.7866H22.4328C20.6085 50.7927 18.7843 50.7736 16.9606 50.7291L16.4756 50.7141C15.8822 50.6926 15.2888 50.6676 14.6957 50.6391C12.0358 50.5141 10.2209 50.0891 8.626 49.4741C6.95779 48.8475 5.44676 47.8638 4.19873 46.5918C2.92641 45.3426 1.9419 43.8308 1.31388 42.162C0.696407 40.5696 0.276428 38.7547 0.151435 36.0948C0.123593 35.5017 0.0985944 34.9083 0.0764385 34.3149L0.0639395 33.8299C0.0178508 32.0063 -0.00298371 30.182 0.00144243 28.3577V23.218C-0.00553463 21.3946 0.0127997 19.5712 0.0564398 17.7483L0.0739388 17.2633C0.0939378 16.7033 0.118936 16.1484 0.148935 15.4834C0.273928 12.821 0.693907 11.0086 1.31137 9.41371C1.93977 7.74534 2.9262 6.23498 4.20123 4.98893C5.4484 3.71588 6.95849 2.73048 8.626 2.10158C10.2209 1.48411 12.0333 1.06414 14.6957 0.939142L16.4756 0.864146L16.9606 0.851647C18.7834 0.805582 20.6068 0.784747 22.4303 0.78915L27.57 0.79165ZM25.0002 13.291C23.344 13.2676 21.6997 13.5736 20.1628 14.1911C18.626 14.8087 17.2272 15.7256 16.0477 16.8885C14.8683 18.0513 13.9317 19.437 13.2925 20.965C12.6532 22.493 12.324 24.1328 12.324 25.7891C12.324 27.4454 12.6532 29.0852 13.2925 30.6132C13.9317 32.1412 14.8683 33.5269 16.0477 34.6898C17.2272 35.8526 18.626 36.7695 20.1628 37.3871C21.6997 38.0047 23.344 38.3106 25.0002 38.2872C28.3152 38.2872 31.4945 36.9703 33.8385 34.6262C36.1826 32.2822 37.4995 29.1029 37.4995 25.7879C37.4995 22.4728 36.1826 19.2936 33.8385 16.9495C31.4945 14.6054 28.3152 13.291 25.0002 13.291ZM25.0002 18.2907C25.9964 18.2724 26.9863 18.4527 27.912 18.8212C28.8377 19.1897 29.6808 19.739 30.3918 20.437C31.1029 21.135 31.6678 21.9676 32.0534 22.8864C32.4391 23.8051 32.6378 24.7915 32.6379 25.7878C32.6381 26.7842 32.4397 27.7707 32.0544 28.6895C31.669 29.6084 31.1044 30.4412 30.3936 31.1394C29.6828 31.8376 28.8399 32.3872 27.9143 32.756C26.9887 33.1248 25.9989 33.3055 25.0027 33.2875C23.0136 33.2875 21.1061 32.4973 19.6996 31.0909C18.2932 29.6844 17.503 27.7769 17.503 25.7879C17.503 23.7988 18.2932 21.8913 19.6996 20.4848C21.1061 19.0784 23.0136 18.2882 25.0027 18.2882L25.0002 18.2907ZM38.1245 9.5412C37.318 9.57348 36.5553 9.91656 35.9961 10.4986C35.4369 11.0806 35.1246 11.8564 35.1246 12.6635C35.1246 13.4707 35.4369 14.2465 35.9961 14.8285C36.5553 15.4105 37.318 15.7536 38.1245 15.7859C38.9532 15.7859 39.7481 15.4567 40.3341 14.8706C40.9201 14.2846 41.2493 13.4898 41.2493 12.661C41.2493 11.8323 40.9201 11.0375 40.3341 10.4514C39.7481 9.86542 38.9532 9.5362 38.1245 9.5362V9.5412Z" fill="black"/>
</svg>
