<svg width="60" height="61" viewBox="0 0 60 61" fill="none" xmlns="http://www.w3.org/2000/svg">
<path d="M10 0.0625C7.34784 0.0625 4.8043 1.11607 2.92893 2.99143C1.05357 4.8668 0 7.41034 0 10.0625V50.0625C0 52.7147 1.05357 55.2582 2.92893 57.1336C4.8043 59.0089 7.34784 60.0625 10 60.0625H50C52.6522 60.0625 55.1957 59.0089 57.0711 57.1336C58.9464 55.2582 60 52.7147 60 50.0625V10.0625C60 7.41034 58.9464 4.8668 57.0711 2.99143C55.1957 1.11607 52.6522 0.0625 50 0.0625H10ZM34.4467 43.5792C36.8467 45.5125 39.24 46.4625 41.6333 46.4392C43.1 46.4392 44.2267 46.1725 45.0067 45.6325C45.3709 45.3961 45.6672 45.0689 45.8665 44.6831C46.0658 44.2974 46.1612 43.8663 46.1433 43.4325C46.1482 42.9593 46.0492 42.4908 45.8534 42.0601C45.6576 41.6293 45.3697 41.2466 45.01 40.9392C44.2267 40.2558 42.7467 39.5725 40.57 38.8858C37.9567 38.1292 35.9367 37.1525 34.52 35.9525C33.1267 34.7525 32.42 33.0792 32.3933 30.9292C32.3933 28.8992 33.2733 27.2025 35.0333 25.8325C36.7467 24.4658 38.9333 23.7792 41.6 23.7792C45.3133 23.7792 48.2967 24.6825 50.5433 26.4925L47.9767 30.4892C47.0526 29.7704 45.9923 29.2465 44.86 28.9492C43.8424 28.6088 42.7794 28.4234 41.7067 28.3992C40.44 28.3992 39.4233 28.6325 38.6633 29.0958C37.9067 29.5625 37.53 30.1725 37.53 30.9292C37.53 31.7625 37.9933 32.4692 38.92 33.0558C39.8533 33.6192 41.44 34.2425 43.6867 34.9258C46.4 35.7325 48.3333 36.8092 49.48 38.1525C50.63 39.4958 51.2033 41.2092 51.2033 43.2858C51.2033 45.4125 50.3867 47.2458 48.7467 48.7858C47.1333 50.3025 44.7867 51.0958 41.7067 51.1692C37.6733 51.1692 34.3 49.9592 31.5867 47.5392L34.4467 43.5792ZM16.0133 45.7058C16.7967 46.1958 17.7367 46.4392 18.8367 46.4392C19.9867 46.4392 20.9367 46.1092 21.6967 45.4492C22.4533 44.7658 22.8333 43.5792 22.8333 41.8925V24.2192H27.7833V42.8458C27.71 45.7292 26.88 47.8092 25.29 49.0792C24.4224 49.8169 23.4111 50.3663 22.32 50.6925C21.3094 51.0004 20.2597 51.1609 19.2033 51.1692C17.37 51.1692 15.7433 50.8525 14.3267 50.2158C12.81 49.5325 11.54 48.3225 10.5133 46.5858L13.96 43.7625C14.5933 44.6192 15.28 45.2658 16.0133 45.7058Z" fill="black"/>
</svg>
