<svg width="119" height="117" viewBox="0 0 119 117" fill="none" xmlns="http://www.w3.org/2000/svg">
<path d="M48.8396 40.7492C47.005 40.0054 45.0217 39.7079 42.9888 39.7575C41.6996 39.7575 40.5592 39.7575 39.6171 39.8071C38.6254 39.7575 37.9313 39.8071 37.5842 39.8567V56.5167C38.2783 56.5662 38.9229 56.6158 39.5179 56.6158H42.1458C44.0796 56.6158 46.0133 56.3183 47.8479 55.7233C49.4346 55.2771 50.8229 54.335 51.9138 53.0954C52.955 51.8558 53.4508 50.17 53.4508 47.9883C53.5004 46.4512 53.1038 44.9142 52.3104 43.5754C51.4837 42.288 50.2678 41.2979 48.8396 40.7492ZM97.9271 0.487488H21.0729C9.42083 0.487488 0 9.90832 0 21.5604V95.4346C0 107.087 9.42083 116.508 21.0729 116.508H97.9271C109.579 116.508 119 107.087 119 95.4346V21.5604C119 9.90832 109.579 0.487488 97.9271 0.487488ZM61.28 58.2521C59.3017 61.0287 56.525 63.1112 53.3021 64.3012C49.9304 65.5408 46.2117 65.9871 42.1458 65.9871C40.9558 65.9871 40.1625 65.9871 39.6667 65.9375C39.1708 65.8879 38.4767 65.8879 37.5346 65.8879V81.7992C37.5842 82.1463 37.3363 82.4487 36.9892 82.4983H27.37C26.9733 82.4983 26.775 82.295 26.775 81.8488V30.8325C26.775 30.4854 26.9237 30.2871 27.2708 30.2871C28.1138 30.2871 28.9071 30.2871 30.0475 30.2375C31.2375 30.1879 32.4771 30.1879 33.8158 30.1383C35.1546 30.0887 36.5925 30.0887 38.1296 30.0392C39.6667 29.9896 41.1542 29.9896 42.6417 29.9896C46.7075 29.9896 50.0792 30.4854 52.8558 31.5267C55.335 32.3696 57.6158 33.7579 59.5 35.5925C61.0867 37.1792 62.3262 39.1129 63.1196 41.245C63.8584 43.3275 64.255 45.4596 64.255 47.6908C64.26 51.955 63.2683 55.4754 61.28 58.2521ZM96.4396 77.54C95.0513 79.5233 93.1125 81.0555 90.8863 81.9579C88.4567 82.9942 85.4817 83.5346 81.9067 83.5346C79.6308 83.5346 77.3946 83.3412 75.1683 82.895C73.4329 82.5925 71.6975 82.0521 70.1108 81.3083C69.7638 81.115 69.5109 80.7679 69.5605 80.3712V71.7437C69.5605 71.5999 69.615 71.3966 69.7637 71.2974C69.9075 71.1983 70.0612 71.2479 70.21 71.347C72.1438 72.4874 74.1767 73.2857 76.3583 73.7766C78.2375 74.2724 80.2209 74.5204 82.2092 74.5204C84.0933 74.5204 85.4321 74.2675 86.3246 73.8212C87.1179 73.4742 87.6633 72.6312 87.6633 71.7387C87.6633 71.0396 87.2667 70.4 86.4733 69.7554C85.68 69.1158 84.0487 68.372 81.6191 67.42C79.0904 66.5275 76.7649 65.3375 74.5783 63.855C73.0268 62.7437 71.7386 61.3049 70.805 59.6404C70.0169 58.0716 69.627 56.333 69.6695 54.5779C69.6695 52.4459 70.2645 50.4129 71.3603 48.5784C72.5999 46.595 74.4295 45.0084 76.5616 44.0167C78.8871 42.8317 81.8125 42.2862 85.3329 42.2862C87.3658 42.2862 89.4483 42.435 91.4813 42.7325C92.9688 42.9308 94.4067 43.3275 95.7454 43.8729C95.9388 43.9225 96.1421 44.1208 96.2412 44.3192C96.2908 44.5175 96.3404 44.7158 96.3404 44.9142V52.9962C96.3404 53.1946 96.2412 53.3929 96.0925 53.4921C95.6462 53.5912 95.3983 53.5912 95.2 53.4921C93.7125 52.6987 92.1258 52.1533 90.44 51.8062C88.6054 51.4096 86.7708 51.1617 84.8867 51.1617C83.895 51.1121 82.8537 51.2608 81.9067 51.5087C81.2671 51.6575 80.7167 52.0046 80.3696 52.5004C80.1217 52.8971 79.973 53.3929 79.973 53.8392C79.973 54.2854 80.1713 54.7317 80.4737 55.1283C80.92 55.6737 81.51 56.12 82.1596 56.4671C83.295 57.0621 84.49 57.6075 85.675 58.1033C88.3575 58.9958 90.9358 60.2354 93.3158 61.7229C94.9521 62.7592 96.2908 64.1525 97.228 65.8383C98.0213 67.4151 98.418 69.1604 98.3684 70.9404C98.4229 73.2758 97.7288 75.6013 96.4396 77.54Z" fill="black"/>
</svg>
