<svg width="144" height="144" viewBox="0 0 144 144" fill="none" xmlns="http://www.w3.org/2000/svg">
<path d="M1.36797 50.22C1.36797 50.22 -2.13603 47.658 2.06997 44.25L11.88 35.382C11.88 35.382 14.682 32.4 17.652 34.998L108.138 104.25V137.454C108.138 137.454 108.096 142.674 101.478 142.098L1.36197 50.214L1.36797 50.22Z" fill="black"/>
<path d="M24.696 71.622L1.36797 93.054C1.36797 93.054 -1.03203 94.854 1.36797 98.076L12.198 108.036C12.198 108.036 14.772 110.826 18.57 107.646L43.296 88.698L24.696 71.622ZM65.64 71.796L108.42 38.784L108.138 5.75405C108.138 5.75405 106.308 -1.45795 100.218 2.29805L43.296 54.66L65.64 71.796Z" fill="black"/>
<path d="M101.472 142.14C103.956 144.708 106.968 143.868 106.968 143.868L140.304 127.266C144.57 124.326 143.97 120.678 143.97 120.678V21.528C143.97 17.172 139.56 15.666 139.56 15.666L110.664 1.58405C104.352 -2.35795 100.218 2.29805 100.218 2.29805C100.218 2.29805 105.534 -1.57195 108.138 5.75405L108.138 136.854C108.138 137.754 107.946 138.636 107.568 139.434C106.806 140.988 105.156 142.434 101.196 141.834L101.472 142.14Z" fill="black"/>
</svg>
