<svg width="50" height="36" viewBox="0 0 50 36" fill="none" xmlns="http://www.w3.org/2000/svg">
<path d="M20 25.7878L32.975 18.2878L20 10.7878V25.7878ZM48.9 6.21284C49.225 7.38784 49.45 8.96284 49.6 10.9628C49.775 12.9628 49.85 14.6878 49.85 16.1878L50 18.2878C50 23.7628 49.6 27.7878 48.9 30.3628C48.275 32.6128 46.825 34.0628 44.575 34.6878C43.4 35.0128 41.25 35.2378 37.95 35.3878C34.7 35.5628 31.725 35.6378 28.975 35.6378L25 35.7878C14.525 35.7878 8 35.3878 5.425 34.6878C3.175 34.0628 1.725 32.6128 1.1 30.3628C0.775 29.1878 0.55 27.6128 0.4 25.6128C0.225 23.6128 0.15 21.8878 0.15 20.3878L0 18.2878C0 12.8128 0.4 8.78784 1.1 6.21284C1.725 3.96284 3.175 2.51284 5.425 1.88784C6.6 1.56284 8.75 1.33784 12.05 1.18784C15.3 1.01284 18.275 0.937842 21.025 0.937842L25 0.787842C35.475 0.787842 42 1.18784 44.575 1.88784C46.825 2.51284 48.275 3.96284 48.9 6.21284Z" fill="black"/>
</svg>
