<svg width="127" height="104" viewBox="0 0 127 104" fill="none" xmlns="http://www.w3.org/2000/svg">
<path d="M111.542 32.6307L72.0688 2.31492C69.4834 0.329682 65.1391 0.338541 62.3001 2.3255C59.4255 4.33313 59.094 7.66131 61.6487 9.75999L78.0649 23.1194H27.9425C23.8049 23.1212 19.8275 25.8917 19.0427 29.3244C18.2314 32.8195 21.0398 35.6855 25.3418 35.6988H50.7091L5.26199 70.5816C0.991033 73.8497 -0.387338 79.2901 2.30271 82.7297C5.03066 86.2312 10.8377 86.2381 15.153 82.7494L39.862 62.5289C39.862 62.5289 39.4995 65.2566 39.5283 66.8951C40.2713 80.7265 50.8162 93.5485 63.8727 99.2271C86.3706 109.192 116.746 100.07 125.287 74.1002C129.349 60.4777 126.235 44.2786 111.542 32.631L111.542 32.6307ZM69.697 80.9182C51.9283 71.6179 51.928 48.2402 69.697 38.9396C87.4659 29.639 109.797 41.3279 109.797 59.9289C109.797 78.5299 87.4659 90.2189 69.697 80.9182ZM75.1083 72.5486C63.7745 66.6209 63.7745 51.7209 75.1083 45.7933C86.4422 39.8656 100.686 47.3154 100.686 59.1709C100.686 71.0265 86.4419 78.4765 75.1083 72.5486Z" fill="black"/>
</svg>
