<svg width="60" height="81" viewBox="0 0 60 81" fill="none" xmlns="http://www.w3.org/2000/svg">
<path d="M15.0067 0.0625H23.6V3.65583H18.6V7.24917H23.6V10.8425H15.0067V0.0625ZM25.3167 0.0625H33.9133V3.18917H28.9133V3.8125H33.9133V10.9992H25.3167V7.71917H30.3167V7.0925H25.3167V0.0625ZM35.6333 0.0625H44.2233V3.18917H39.2233V3.8125H44.2233V10.9992H35.6333V7.71917H40.6333V7.0925H35.6333V0.0625Z" fill="black"/>
<path fill-rule="evenodd" clip-rule="evenodd" d="M29.97 80.0625L6.82333 73.6358L0 15.7858H60L53.18 73.6292L29.97 80.0625ZM13.49 41.9725L14.1267 49.0658H38.7167L37.8933 58.2658L29.98 60.4058H29.9733L22.0733 58.2725L21.5667 52.6158H14.4433L15.4367 63.7558L29.97 67.7892L44.5267 63.7558L46.3 43.8758L46.4733 41.9725L47.7533 27.6092H12.2133L12.86 34.7058H39.98L39.3333 41.9725H13.49Z" fill="black"/>
</svg>
