<svg width="97" height="140" viewBox="0 0 97 140" fill="none" xmlns="http://www.w3.org/2000/svg">
<path d="M48.5 70C48.5 38.8981 96.8349 38.8981 96.8349 70C96.8349 101.102 48.5 101.102 48.5 70ZM0.165178 116.668C0.163391 113.604 0.787221 110.569 2.001 107.737C3.21478 104.906 4.9947 102.333 7.239 100.166C9.4833 97.9992 12.148 96.2807 15.0806 95.1088C18.0133 93.9368 21.1564 93.3345 24.3303 93.3362H48.4955V116.668C48.4955 147.77 0.160645 147.77 0.160645 116.668H0.165178ZM48.5 -1.58348e-05V46.6681H72.6652C104.878 46.6681 104.878 -1.58348e-05 72.6652 -1.58348e-05H48.5ZM0.165178 23.3319C0.163391 26.3963 0.787221 29.4311 2.001 32.2626C3.21478 35.0942 4.9947 37.6669 7.239 39.8338C9.4833 42.0007 12.148 43.7193 15.0806 44.8912C18.0133 46.0631 21.1564 46.6655 24.3303 46.6637H48.4955V-0.00439084H24.3303C21.1564 -0.00611616 18.0133 0.596203 15.0806 1.76813C12.148 2.94005 9.4833 4.6586 7.239 6.82551C4.9947 8.99242 3.21478 11.5652 2.001 14.3967C0.787221 17.2283 0.163391 20.263 0.165178 23.3275V23.3319ZM0.165178 70C0.163391 73.0645 0.787221 76.0992 2.001 78.9307C3.21478 81.7623 4.9947 84.3351 7.239 86.502C9.4833 88.6689 12.148 90.3874 15.0806 91.5593C18.0133 92.7313 21.1564 93.338 24.3303 93.3362H48.4955V46.6637H24.3303C21.1564 46.662 18.0133 47.2643 15.0806 48.4362C12.148 49.6082 9.4833 51.3267 7.239 53.4936C4.9947 55.6605 3.21478 58.2333 2.001 61.0648C0.787221 63.8964 0.163391 66.9311 0.165178 69.9956V70Z" fill="black"/>
</svg>
