<svg width="34" height="27" viewBox="0 0 34 27" fill="none" xmlns="http://www.w3.org/2000/svg">
<path d="M30.6 23.3298H27.2V8.81753L17 15.0371L6.8 8.81753V23.3298H3.4V3.42724H5.44L17 10.4761L28.56 3.42724H30.6M30.6 0.110138H3.4C1.513 0.110138 0 1.58625 0 3.42724V23.3298C0 24.2096 0.358213 25.0533 0.995837 25.6754C1.63346 26.2975 2.49826 26.6469 3.4 26.6469H30.6C31.5017 26.6469 32.3665 26.2975 33.0042 25.6754C33.6418 25.0533 34 24.2096 34 23.3298V3.42724C34 2.54749 33.6418 1.70377 33.0042 1.08169C32.3665 0.459617 31.5017 0.110138 30.6 0.110138Z" fill="black"/>
</svg>
