<svg width="60" height="81" viewBox="0 0 60 81" fill="none" xmlns="http://www.w3.org/2000/svg">
<path d="M6.93333 0.0625H10.54V3.62583H13.84V0.0625H17.4467V10.8492H13.84V7.23917H10.54V10.8492H6.93667L6.93333 0.0625ZM22.1867 3.63917H19.0133V0.0625H28.97V3.63917H25.7933V10.8492H22.1867V3.63917ZM30.55 0.0625H34.31L36.6233 3.8525L38.9333 0.0625H42.6933V10.8492H39.1033V5.5025L36.6233 9.33917H36.56L34.0767 5.50583V10.8492H30.55V0.0625ZM44.4867 0.0625H48.0967V7.28583H53.1633V10.8525H44.4867V0.0625Z" fill="black"/>
<path fill-rule="evenodd" clip-rule="evenodd" d="M6.82 73.6358L0 15.7858H60L53.1767 73.6292L29.9667 80.0625L6.82 73.6358ZM20.61 41.9692L19.9633 34.7025H47.1133L47.7467 27.6092H12.2133L14.1267 49.0658H38.7167L37.8933 58.2658L29.98 60.4058H29.9733L22.0733 58.2725L21.5667 52.6158H14.44L15.4333 63.7558L29.9667 67.7892L44.5233 63.7558L46.2967 43.8758L46.47 41.9725H20.61V41.9692Z" fill="black"/>
</svg>
