<svg width="50" height="49" viewBox="0 0 50 49" fill="none" xmlns="http://www.w3.org/2000/svg">
<path d="M21.9375 21.7292C21.7292 21.0833 21.5417 20.4583 21.3333 19.8125C21.125 19.1667 20.9375 18.5625 20.7708 17.9583C20.6042 17.375 20.4583 16.8333 20.3125 16.3333H20.2708C20.0833 17.2292 19.8542 18.125 19.5625 19.0208C19.25 20.0208 18.9375 21.0625 18.6042 22.1042C18.3125 23.1667 18 24.1458 17.6875 25.0208H22.9792C22.8542 24.5812 22.6875 24.0625 22.5 23.5187C22.3125 22.9583 22.125 22.3542 21.9375 21.7292ZM41.1458 0H8.85417C3.95833 0 0 3.95833 0 8.85417V39.8958C0 44.7917 3.95833 48.75 8.85417 48.75H41.1458C46.0417 48.75 50 44.7917 50 39.8958V8.85417C50 3.95833 46.0417 0 41.1458 0ZM30.625 34.4375H26.2687C26.125 34.4583 25.9792 34.3542 25.9375 34.2083L24.2292 29.25H16.4792L14.8958 34.1458C14.8542 34.3333 14.6875 34.4583 14.5 34.4396H10.5833C10.3542 34.4396 10.2917 34.3125 10.3542 34.0646L17.0625 14.75C17.125 14.5417 17.1875 14.3125 17.2708 14.0625C17.3542 13.625 17.3958 13.1667 17.3958 12.7083C17.375 12.6042 17.4583 12.5 17.5625 12.4792H22.9583C23.125 12.4792 23.2083 12.5417 23.2292 12.6458L30.8333 34.1042C30.8958 34.3313 30.8333 34.4375 30.625 34.4375ZM37.7083 34.125C37.7083 34.3542 37.6271 34.4583 37.4396 34.4583H33.3542C33.1458 34.4583 33.0417 34.3313 33.0417 34.125V18.0833C33.0417 17.875 33.1271 17.7917 33.3146 17.7917H37.4396C37.6271 17.7917 37.7083 17.8958 37.7083 18.0833V34.125ZM37.2729 15.3125C37.0269 15.5624 36.7302 15.7567 36.4029 15.8825C36.0755 16.0082 35.7251 16.0625 35.375 16.0417C34.6875 16.0625 34.0208 15.7917 33.5188 15.3125C33.0414 14.7906 32.7872 14.1027 32.8104 13.3958C32.7896 12.6875 33.0604 12.0208 33.5583 11.5417C34.0625 11.0625 34.7292 10.8125 35.4167 10.8125C36.2312 10.8125 36.8521 11.0625 37.3125 11.5417C37.7708 12.0417 38.0208 12.7083 38 13.3958C38.0208 14.1042 37.7708 14.7917 37.2729 15.3125Z" fill="black"/>
</svg>
