<svg width="50" height="51" viewBox="0 0 50 51" fill="none" xmlns="http://www.w3.org/2000/svg">
<path d="M44.4444 0.662842C45.9179 0.662842 47.3309 1.24816 48.3728 2.29003C49.4147 3.33189 50 4.74497 50 6.2184V45.1073C50 46.5807 49.4147 47.9938 48.3728 49.0357C47.3309 50.0775 45.9179 50.6628 44.4444 50.6628H5.55556C4.08213 50.6628 2.66905 50.0775 1.62718 49.0357C0.585316 47.9938 0 46.5807 0 45.1073V6.2184C0 4.74497 0.585316 3.33189 1.62718 2.29003C2.66905 1.24816 4.08213 0.662842 5.55556 0.662842H44.4444ZM43.0556 43.7184V28.9962C43.0556 26.5945 42.1015 24.2912 40.4032 22.5929C38.705 20.8947 36.4017 19.9406 34 19.9406C31.6389 19.9406 28.8889 21.3851 27.5556 23.5517V20.4684H19.8056V43.7184H27.5556V30.024C27.5556 27.8851 29.2778 26.1351 31.4167 26.1351C32.4481 26.1351 33.4372 26.5448 34.1665 27.2741C34.8958 28.0034 35.3056 28.9926 35.3056 30.024V43.7184H43.0556ZM10.7778 16.1073C12.0155 16.1073 13.2024 15.6156 14.0776 14.7405C14.9528 13.8653 15.4444 12.6783 15.4444 11.4406C15.4444 8.85729 13.3611 6.74618 10.7778 6.74618C9.53273 6.74618 8.33868 7.24077 7.4583 8.12115C6.57792 9.00152 6.08333 10.1956 6.08333 11.4406C6.08333 14.024 8.19444 16.1073 10.7778 16.1073ZM14.6389 43.7184V20.4684H6.94444V43.7184H14.6389Z" fill="black"/>
</svg>
