<svg width="113" height="114" viewBox="0 0 113 114" fill="none" xmlns="http://www.w3.org/2000/svg">
<path d="M100 0.75C103.315 0.75 106.495 2.06696 108.839 4.41116C111.183 6.75537 112.5 9.93479 112.5 13.25V100.75C112.5 104.065 111.183 107.245 108.839 109.589C106.495 111.933 103.315 113.25 100 113.25H12.5C9.18479 113.25 6.00537 111.933 3.66116 109.589C1.31696 107.245 0 104.065 0 100.75V13.25C0 9.93479 1.31696 6.75537 3.66116 4.41116C6.00537 2.06696 9.18479 0.75 12.5 0.75H100ZM96.875 97.625V64.5C96.875 59.0962 94.7284 53.9137 90.9073 50.0927C87.0862 46.2716 81.9038 44.125 76.5 44.125C71.1875 44.125 65 47.375 62 52.25V45.3125H44.5625V97.625H62V66.8125C62 62 65.875 58.0625 70.6875 58.0625C73.0081 58.0625 75.2337 58.9844 76.8747 60.6253C78.5156 62.2663 79.4375 64.4919 79.4375 66.8125V97.625H96.875ZM24.25 35.5C27.0348 35.5 29.7055 34.3938 31.6746 32.4246C33.6438 30.4555 34.75 27.7848 34.75 25C34.75 19.1875 30.0625 14.4375 24.25 14.4375C21.4487 14.4375 18.762 15.5503 16.7812 17.5312C14.8003 19.512 13.6875 22.1987 13.6875 25C13.6875 30.8125 18.4375 35.5 24.25 35.5ZM32.9375 97.625V45.3125H15.625V97.625H32.9375Z" fill="black"/>
</svg>
