<svg width="80" height="43" viewBox="0 0 80 43" fill="none" xmlns="http://www.w3.org/2000/svg">
<path d="M23.3667 15.0859H20.22L18.5033 23.9125H21.2967C23.15 23.9125 24.53 23.5625 25.4367 22.8659C26.3433 22.1659 26.9533 21.0025 27.27 19.3692C27.5767 17.8025 27.4367 16.6959 26.8567 16.0525C26.2733 15.4092 25.1133 15.0859 23.3667 15.0859ZM40 0.022522C17.91 0.022522 0 9.44252 0 21.0625C0 32.6825 17.91 42.1059 40 42.1059C62.09 42.1059 80 32.6825 80 21.0625C80 9.44252 62.09 0.022522 40 0.022522ZM29.1333 24.8592C28.2633 25.6925 27.2167 26.3192 26.0767 26.6959C24.9567 27.0559 23.5267 27.2425 21.7933 27.2425H17.8567L16.7667 32.8459H12.1733L16.2733 11.7592H25.1067C27.7633 11.7592 29.7 12.4559 30.92 13.8525C32.14 15.2459 32.5067 17.1925 32.02 19.6925C31.8336 20.6818 31.4904 21.6349 31.0033 22.5159C30.5267 23.3659 29.9033 24.1492 29.1333 24.8592ZM42.5467 27.2425L44.3567 17.9125C44.5667 16.8525 44.4867 16.1259 44.13 15.7425C43.7733 15.3559 43.01 15.1625 41.84 15.1625H38.2L35.8533 27.2459H31.2933L35.3933 6.15585H39.95L38.86 11.7625H42.92C45.4767 11.7625 47.2367 12.2092 48.2067 13.0992C49.1767 13.9892 49.4667 15.4325 49.0833 17.4292L47.1767 27.2425H42.5467ZM67.87 19.6925C67.6866 20.6826 67.3433 21.6362 66.8533 22.5159C66.3767 23.3659 65.7533 24.1492 64.9833 24.8592C64.1129 25.69 63.0689 26.3173 61.9267 26.6959C60.8067 27.0559 59.3767 27.2425 57.64 27.2425H53.7067L52.6167 32.8492H48.0233L52.1233 11.7625H60.9533C63.61 11.7625 65.5467 12.4592 66.7667 13.8559C67.9867 15.2459 68.3567 17.1925 67.87 19.6925ZM59.22 15.0859H56.0767L54.3567 23.9125H57.15C59.0067 23.9125 60.3867 23.5625 61.29 22.8659C62.1967 22.1659 62.8067 21.0025 63.1267 19.3692C63.4333 17.8025 63.29 16.6959 62.71 16.0525C62.13 15.4092 60.9633 15.0859 59.22 15.0859Z" fill="black"/>
</svg>
