<svg xmlns="http://www.w3.org/2000/svg"><symbol id="icon-fb" viewBox="0 0 50 51"><path d="M50 25.788c0-13.8-11.2-25-25-25s-25 11.2-25 25c0 12.1 8.6 22.175 20 24.5v-17h-5v-7.5h5v-6.25c0-4.825 3.925-8.75 8.75-8.75H35v7.5h-5a2.507 2.507 0 0 0-2.5 2.5v5H35v7.5h-7.5v17.375c12.625-1.25 22.5-11.9 22.5-24.875Z"/></symbol><symbol id="icon-github" viewBox="0 0 50 49"><path d="M25 0A25 25 0 0 0 0 25c0 11.05 7.175 20.425 17.1 23.75 1.25.2 1.65-.575 1.65-1.25v-4.225c-6.925 1.5-8.4-3.35-8.4-3.35-1.15-2.9-2.775-3.675-2.775-3.675-2.275-1.55.175-1.5.175-1.5 2.5.175 3.825 2.575 3.825 2.575 2.175 3.8 5.85 2.675 7.275 2.075.225-1.625.875-2.725 1.575-3.35-5.55-.625-11.375-2.775-11.375-12.3 0-2.775.95-5 2.575-6.775-.25-.625-1.125-3.225.25-6.6 0 0 2.1-.675 6.875 2.55 1.975-.55 4.125-.825 6.25-.825s4.275.275 6.25.825c4.775-3.225 6.875-2.55 6.875-2.55 1.375 3.375.5 5.975.25 6.6 1.625 1.775 2.575 4 2.575 6.775 0 9.55-5.85 11.65-11.425 12.275.9.775 1.725 2.3 1.725 4.625v6.85c0 .675.4 1.475 1.675 1.25C42.85 45.4 50 36.05 50 25A25 25 0 0 0 25 0Z"/></symbol><symbol id="icon-insta" viewBox="0 0 50 51"><path d="M27.57.792c1.824-.007 3.648.011 5.472.055l.485.017c.56.02 1.113.045 1.78.075 2.66.125 4.475.545 6.067 1.163 1.65.635 3.04 1.495 4.43 2.884a12.269 12.269 0 0 1 2.882 4.428c.618 1.592 1.038 3.41 1.163 6.07.03.664.055 1.22.075 1.78l.015.484c.044 1.823.063 3.647.057 5.47L50 25.083v3.275c.006 1.824-.013 3.648-.058 5.472l-.015.485c-.02.56-.045 1.112-.075 1.78-.125 2.66-.55 4.475-1.165 6.067a12.209 12.209 0 0 1-2.882 4.43 12.286 12.286 0 0 1-4.43 2.882c-1.592.618-3.407 1.038-6.067 1.163-.667.03-1.22.055-1.78.075l-.485.015a199.66 199.66 0 0 1-5.472.057l-1.865.003h-3.272c-1.825.006-3.649-.013-5.472-.058l-.485-.015a150.99 150.99 0 0 1-1.78-.075c-2.66-.125-4.475-.55-6.07-1.165A12.224 12.224 0 0 1 4.2 46.592a12.26 12.26 0 0 1-2.885-4.43C.696 40.57.276 38.755.15 36.095c-.027-.593-.052-1.187-.075-1.78l-.012-.485A197.615 197.615 0 0 1 0 28.358v-5.14c-.007-1.823.012-3.647.055-5.47l.018-.485c.02-.56.045-1.115.075-1.78.125-2.662.545-4.474 1.162-6.07A12.2 12.2 0 0 1 4.2 4.989a12.242 12.242 0 0 1 4.425-2.887c1.595-.618 3.407-1.038 6.07-1.163l1.78-.075.485-.012a199.43 199.43 0 0 1 5.47-.063l5.139.003ZM25 13.29a12.502 12.502 0 0 0-12.676 12.498A12.499 12.499 0 0 0 25 38.287a12.499 12.499 0 1 0 0-24.996Zm0 5a7.5 7.5 0 1 1 .003 14.997 7.5 7.5 0 0 1 0-15L25 18.29Zm13.124-8.75a3.125 3.125 0 0 0 0 6.245 3.125 3.125 0 1 0 0-6.25v.005Z"/></symbol><symbol id="icon-link" viewBox="0 0 50 51"><path d="M44.444.663A5.556 5.556 0 0 1 50 6.218v38.89a5.556 5.556 0 0 1-5.556 5.555H5.556A5.556 5.556 0 0 1 0 45.107V6.218A5.556 5.556 0 0 1 5.556.663h38.888Zm-1.388 43.055V28.996A9.056 9.056 0 0 0 34 19.941c-2.361 0-5.111 1.444-6.444 3.61v-3.083h-7.75v23.25h7.75V30.024c0-2.139 1.722-3.889 3.86-3.889a3.889 3.889 0 0 1 3.89 3.889v13.694h7.75Zm-32.278-27.61a4.667 4.667 0 0 0 4.666-4.667c0-2.584-2.083-4.695-4.666-4.695a4.694 4.694 0 0 0-4.695 4.695c0 2.583 2.111 4.666 4.695 4.666Zm3.86 27.61v-23.25H6.945v23.25h7.695Z"/></symbol></svg>