<svg xmlns="http://www.w3.org/2000/svg"><symbol id="icon-blender" viewBox="0 0 127 104"><path d="M111.542 32.63 72.069 2.316C69.483.33 65.139.339 62.3 2.325c-2.874 2.008-3.206 5.336-.651 7.435l16.416 13.36H27.942c-4.137.001-8.114 2.772-8.9 6.204-.81 3.495 1.998 6.361 6.3 6.375h25.367L5.262 70.582C.991 73.85-.388 79.29 2.302 82.73c2.729 3.501 8.536 3.508 12.851.02l24.709-20.221s-.363 2.728-.334 4.366c.743 13.832 11.288 26.654 24.345 32.332 22.498 9.965 52.873.843 61.414-25.127 4.062-13.622.948-29.821-13.745-41.469ZM69.697 80.919c-17.769-9.3-17.769-32.678 0-41.978 17.769-9.301 40.1 2.388 40.1 20.989 0 18.6-22.331 30.29-40.1 20.99Zm5.411-8.37c-11.334-5.927-11.334-20.827 0-26.755 11.334-5.927 25.578 1.522 25.578 13.378 0 11.855-14.244 19.306-25.578 13.378Z"/></symbol><symbol id="icon-css" viewBox="0 0 60 81"><path d="M15.007.063H23.6v3.593h-5v3.593h5v3.593h-8.593V.063Zm10.31 0h8.596v3.126h-5v.623h5V11h-8.596V7.72h5v-.627h-5V.063Zm10.316 0h8.59v3.126h-5v.623h5V11h-8.59V7.72h5v-.627h-5V.063Z"/><path fill-rule="evenodd" clip-rule="evenodd" d="M29.97 80.063 6.823 73.636 0 15.786h60l-6.82 57.843-23.21 6.433Zm-16.48-38.09.637 7.093h24.59l-.824 9.2-7.913 2.14h-.007l-7.9-2.133-.506-5.657h-7.124l.994 11.14 14.533 4.033 14.557-4.033 1.773-19.88.173-1.904 1.28-14.363h-35.54l.647 7.097h27.12l-.647 7.266H13.49Z"/></symbol><symbol id="icon-cv" viewBox="0 0 112 112"><path d="M12 0C5.375 0 0 5.375 0 12v88c0 6.625 5.375 12 12 12h88c6.625 0 12-5.375 12-12V12c0-6.625-5.375-12-12-12H12Zm24.72 33.309c4.909 0 9.27 1.697 12.482 4.242 2.97 2.363 4.361 4.727 5.575 6.849l-8.481 4.237c-.607-1.392-1.337-2.847-3.212-4.42-2.062-1.639-4.119-2.122-5.88-2.122-6.907 0-10.543 6.424-10.543 13.572 0 9.393 4.79 14.055 10.542 14.055 5.575 0 7.82-3.877 9.27-6.359l8.427 4.302c-1.579 2.481-3.093 4.909-6.487 7.267a20.813 20.813 0 0 1-11.934 3.76C25.146 78.692 16 70.452 16 55.968c0-12.66 8.604-22.66 20.72-22.66Zm18.87 1.332h11.392l8.846 30.419 8.78-30.42H96L81.155 77.418H70.252L55.591 34.641Z"/></symbol><symbol id="icon-fb" viewBox="0 0 50 51"><path d="M50 25.788c0-13.8-11.2-25-25-25s-25 11.2-25 25c0 12.1 8.6 22.175 20 24.5v-17h-5v-7.5h5v-6.25c0-4.825 3.925-8.75 8.75-8.75H35v7.5h-5a2.507 2.507 0 0 0-2.5 2.5v5H35v7.5h-7.5v17.375c12.625-1.25 22.5-11.9 22.5-24.875Z"/></symbol><symbol id="icon-figma" viewBox="0 0 97 140"><path d="M48.5 70c0-31.102 48.335-31.102 48.335 0S48.5 101.102 48.5 70ZM.165 116.668a22.627 22.627 0 0 1 1.836-8.931 23.288 23.288 0 0 1 5.238-7.571 24.228 24.228 0 0 1 7.842-5.057 24.902 24.902 0 0 1 9.25-1.773h24.165v23.332c0 31.102-48.335 31.102-48.335 0h.004ZM48.5 0v46.668h24.165c32.213 0 32.213-46.668 0-46.668H48.5ZM.165 23.332c-.002 3.064.622 6.1 1.836 8.93a23.281 23.281 0 0 0 5.238 7.572 24.227 24.227 0 0 0 7.842 5.057 24.902 24.902 0 0 0 9.25 1.773h24.165V-.004H24.33c-3.174-.002-6.317.6-9.25 1.772a24.227 24.227 0 0 0-7.84 5.058 23.282 23.282 0 0 0-5.238 7.57 22.623 22.623 0 0 0-1.836 8.931v.005ZM.165 70c-.002 3.064.622 6.1 1.836 8.93a23.282 23.282 0 0 0 5.238 7.572 24.227 24.227 0 0 0 7.842 5.057 24.904 24.904 0 0 0 9.25 1.777h24.165V46.664H24.33c-3.174-.002-6.317.6-9.25 1.772a24.229 24.229 0 0 0-7.841 5.058 23.282 23.282 0 0 0-5.238 7.57 22.623 22.623 0 0 0-1.836 8.932V70Z"/></symbol><symbol id="icon-github" viewBox="0 0 50 49"><path d="M25 0A25 25 0 0 0 0 25c0 11.05 7.175 20.425 17.1 23.75 1.25.2 1.65-.575 1.65-1.25v-4.225c-6.925 1.5-8.4-3.35-8.4-3.35-1.15-2.9-2.775-3.675-2.775-3.675-2.275-1.55.175-1.5.175-1.5 2.5.175 3.825 2.575 3.825 2.575 2.175 3.8 5.85 2.675 7.275 2.075.225-1.625.875-2.725 1.575-3.35-5.55-.625-11.375-2.775-11.375-12.3 0-2.775.95-5 2.575-6.775-.25-.625-1.125-3.225.25-6.6 0 0 2.1-.675 6.875 2.55 1.975-.55 4.125-.825 6.25-.825s4.275.275 6.25.825c4.775-3.225 6.875-2.55 6.875-2.55 1.375 3.375.5 5.975.25 6.6 1.625 1.775 2.575 4 2.575 6.775 0 9.55-5.85 11.65-11.425 12.275.9.775 1.725 2.3 1.725 4.625v6.85c0 .675.4 1.475 1.675 1.25C42.85 45.4 50 36.05 50 25A25 25 0 0 0 25 0Z"/></symbol><symbol id="icon-gmail" viewBox="0 0 34 27"><path d="M30.6 23.33h-3.4V8.818L17 15.038 6.8 8.817V23.33H3.4V3.427h2.04L17 10.477l11.56-7.05h2.04m0-3.317H3.4C1.513.11 0 1.586 0 3.427V23.33c0 .88.358 1.723.996 2.345a3.443 3.443 0 0 0 2.404.972h27.2c.902 0 1.767-.35 2.404-.972A3.277 3.277 0 0 0 34 23.33V3.427c0-.88-.358-1.723-.996-2.345A3.444 3.444 0 0 0 30.6.11Z"/></symbol><symbol id="icon-html" viewBox="0 0 60 81"><path d="M6.933.063h3.607v3.563h3.3V.063h3.607v10.786H13.84V7.24h-3.3v3.61H6.937L6.933.062Zm15.254 3.576h-3.174V.063h9.957v3.576h-3.177v7.21h-3.606V3.64ZM30.55.063h3.76l2.313 3.79 2.31-3.79h3.76v10.786h-3.59V5.503l-2.48 3.836h-.063l-2.483-3.833v5.343H30.55V.062Zm13.937 0h3.61v7.223h5.066v3.566h-8.676V.063Z"/><path fill-rule="evenodd" clip-rule="evenodd" d="M6.82 73.636 0 15.786h60l-6.823 57.843-23.21 6.433L6.82 73.636Zm13.79-31.667-.647-7.267h27.15l.634-7.093H12.213l1.914 21.457h24.59l-.824 9.2-7.913 2.14h-.007l-7.9-2.133-.506-5.657H14.44l.993 11.14 14.534 4.033 14.556-4.033 1.774-19.88.173-1.904H20.61v-.003Z"/></symbol><symbol id="icon-illu" viewBox="0 0 50 49"><path d="M21.938 21.73c-.209-.647-.396-1.272-.605-1.918a45.115 45.115 0 0 1-.562-1.854c-.167-.583-.313-1.125-.459-1.625h-.041a25.565 25.565 0 0 1-.709 2.688c-.312 1-.625 2.041-.958 3.083a40.902 40.902 0 0 1-.916 2.917h5.291a29.64 29.64 0 0 0-.479-1.502 60.515 60.515 0 0 1-.563-1.79ZM41.145 0H8.854A8.847 8.847 0 0 0 0 8.854v31.042a8.847 8.847 0 0 0 8.854 8.854h32.292A8.847 8.847 0 0 0 50 39.896V8.854A8.847 8.847 0 0 0 41.146 0Zm-10.52 34.438h-4.356c-.144.02-.29-.084-.331-.23l-1.709-4.958h-7.75l-1.583 4.896a.368.368 0 0 1-.396.294h-3.917c-.229 0-.291-.127-.229-.375l6.709-19.315c.062-.208.125-.438.208-.688.083-.437.125-.895.125-1.354-.021-.104.062-.208.166-.229h5.396c.167 0 .25.063.271.167l7.604 21.458c.063.227 0 .334-.208.334Zm7.083-.313c0 .23-.08.333-.268.333h-4.086c-.208 0-.312-.127-.312-.333V18.083c0-.208.085-.291.273-.291h4.125c.187 0 .268.104.268.291v16.042Zm-.435-18.813a2.458 2.458 0 0 1-1.898.73 2.586 2.586 0 0 1-1.856-.73 2.708 2.708 0 0 1-.709-1.916c-.02-.709.25-1.375.748-1.854a2.685 2.685 0 0 1 1.859-.73c.814 0 1.435.25 1.895.73.459.5.709 1.166.688 1.854.02.708-.23 1.396-.727 1.916Z"/></symbol><symbol id="icon-insta" viewBox="0 0 50 51"><path d="M27.57.792c1.824-.007 3.648.011 5.472.055l.485.017c.56.02 1.113.045 1.78.075 2.66.125 4.475.545 6.067 1.163 1.65.635 3.04 1.495 4.43 2.884a12.269 12.269 0 0 1 2.882 4.428c.618 1.592 1.038 3.41 1.163 6.07.03.664.055 1.22.075 1.78l.015.484c.044 1.823.063 3.647.057 5.47L50 25.083v3.275c.006 1.824-.013 3.648-.058 5.472l-.015.485c-.02.56-.045 1.112-.075 1.78-.125 2.66-.55 4.475-1.165 6.067a12.209 12.209 0 0 1-2.882 4.43 12.286 12.286 0 0 1-4.43 2.882c-1.592.618-3.407 1.038-6.067 1.163-.667.03-1.22.055-1.78.075l-.485.015a199.66 199.66 0 0 1-5.472.057l-1.865.003h-3.272c-1.825.006-3.649-.013-5.472-.058l-.485-.015a150.99 150.99 0 0 1-1.78-.075c-2.66-.125-4.475-.55-6.07-1.165A12.224 12.224 0 0 1 4.2 46.592a12.26 12.26 0 0 1-2.885-4.43C.696 40.57.276 38.755.15 36.095c-.027-.593-.052-1.187-.075-1.78l-.012-.485A197.615 197.615 0 0 1 0 28.358v-5.14c-.007-1.823.012-3.647.055-5.47l.018-.485c.02-.56.045-1.115.075-1.78.125-2.662.545-4.474 1.162-6.07A12.2 12.2 0 0 1 4.2 4.989a12.242 12.242 0 0 1 4.425-2.887c1.595-.618 3.407-1.038 6.07-1.163l1.78-.075.485-.012a199.43 199.43 0 0 1 5.47-.063l5.139.003ZM25 13.29a12.502 12.502 0 0 0-12.676 12.498A12.499 12.499 0 0 0 25 38.287a12.499 12.499 0 1 0 0-24.996Zm0 5a7.5 7.5 0 1 1 .003 14.997 7.5 7.5 0 0 1 0-15L25 18.29Zm13.124-8.75a3.125 3.125 0 0 0 0 6.245 3.125 3.125 0 1 0 0-6.25v.005Z"/></symbol><symbol id="icon-js" viewBox="0 0 60 61"><path d="M10 .063a10 10 0 0 0-10 10v40a10 10 0 0 0 10 10h40a10 10 0 0 0 10-10v-40a10 10 0 0 0-10-10H10Zm24.447 43.516c2.4 1.934 4.793 2.883 7.186 2.86 1.467 0 2.594-.267 3.374-.806a2.5 2.5 0 0 0 1.136-2.2 3.235 3.235 0 0 0-1.133-2.494c-.783-.683-2.263-1.367-4.44-2.053-2.613-.757-4.633-1.733-6.05-2.934-1.393-1.2-2.1-2.873-2.127-5.023 0-2.03.88-3.726 2.64-5.096 1.714-1.367 3.9-2.054 6.567-2.054 3.713 0 6.697.904 8.943 2.713l-2.566 3.997a8.657 8.657 0 0 0-3.117-1.54 10.7 10.7 0 0 0-3.153-.55c-1.267 0-2.284.233-3.044.697-.756.466-1.133 1.076-1.133 1.833 0 .834.463 1.54 1.39 2.127.933.563 2.52 1.187 4.767 1.87 2.713.806 4.646 1.883 5.793 3.227 1.15 1.343 1.723 3.056 1.723 5.133 0 2.127-.816 3.96-2.456 5.5-1.614 1.517-3.96 2.31-7.04 2.383-4.034 0-7.407-1.21-10.12-3.63l2.86-3.96Zm-18.434 2.127c.784.49 1.724.733 2.824.733 1.15 0 2.1-.33 2.86-.99.756-.683 1.136-1.87 1.136-3.556V24.218h4.95v18.627c-.073 2.883-.903 4.963-2.493 6.233a8.22 8.22 0 0 1-2.97 1.614 10.99 10.99 0 0 1-3.117.476c-1.833 0-3.46-.316-4.876-.953-1.517-.684-2.787-1.894-3.814-3.63l3.447-2.823c.633.856 1.32 1.503 2.053 1.943Z"/></symbol><symbol id="icon-link" viewBox="0 0 50 51"><path d="M44.444.663A5.556 5.556 0 0 1 50 6.218v38.89a5.556 5.556 0 0 1-5.556 5.555H5.556A5.556 5.556 0 0 1 0 45.107V6.218A5.556 5.556 0 0 1 5.556.663h38.888Zm-1.388 43.055V28.996A9.056 9.056 0 0 0 34 19.941c-2.361 0-5.111 1.444-6.444 3.61v-3.083h-7.75v23.25h7.75V30.024c0-2.139 1.722-3.889 3.86-3.889a3.889 3.889 0 0 1 3.89 3.889v13.694h7.75Zm-32.278-27.61a4.667 4.667 0 0 0 4.666-4.667c0-2.584-2.083-4.695-4.666-4.695a4.694 4.694 0 0 0-4.695 4.695c0 2.583 2.111 4.666 4.695 4.666Zm3.86 27.61v-23.25H6.945v23.25h7.695Z"/></symbol><symbol id="icon-linkedin" viewBox="0 0 113 114"><path d="M100 .75a12.5 12.5 0 0 1 12.5 12.5v87.5a12.501 12.501 0 0 1-12.5 12.5H12.5A12.5 12.5 0 0 1 0 100.75v-87.5A12.5 12.5 0 0 1 12.5.75H100Zm-3.125 96.875V64.5A20.375 20.375 0 0 0 76.5 44.125c-5.313 0-11.5 3.25-14.5 8.125v-6.938H44.562v52.313H62V66.812c0-4.812 3.875-8.75 8.688-8.75a8.75 8.75 0 0 1 8.75 8.75v30.813h17.437ZM24.25 35.5A10.5 10.5 0 0 0 34.75 25c0-5.813-4.688-10.563-10.5-10.563A10.562 10.562 0 0 0 13.687 25c0 5.813 4.75 10.5 10.563 10.5Zm8.688 62.125V45.312H15.625v52.313h17.313Z"/></symbol><symbol id="icon-php" viewBox="0 0 80 43"><path d="M23.367 15.086H20.22l-1.717 8.827h2.794c1.853 0 3.233-.35 4.14-1.047.906-.7 1.516-1.863 1.833-3.497.307-1.567.167-2.673-.413-3.317-.584-.643-1.744-.966-3.49-.966ZM40 .023c-22.09 0-40 9.42-40 21.04s17.91 21.043 40 21.043 40-9.424 40-21.044C80 9.443 62.09.023 40 .023ZM29.133 24.859a8.09 8.09 0 0 1-3.056 1.837c-1.12.36-2.55.546-4.284.546h-3.936l-1.09 5.604h-4.594l4.1-21.087h8.834c2.656 0 4.593.697 5.813 2.093 1.22 1.394 1.587 3.34 1.1 5.84a9.452 9.452 0 0 1-1.017 2.824 9.518 9.518 0 0 1-1.87 2.343Zm13.414 2.383 1.81-9.33c.21-1.06.13-1.786-.227-2.17-.357-.386-1.12-.58-2.29-.58H38.2l-2.347 12.084h-4.56l4.1-21.09h4.557l-1.09 5.606h4.06c2.557 0 4.317.447 5.287 1.337.97.89 1.26 2.333.876 4.33l-1.906 9.814h-4.63Zm25.323-7.55a9.273 9.273 0 0 1-1.017 2.824 9.518 9.518 0 0 1-1.87 2.343 8.133 8.133 0 0 1-3.056 1.837c-1.12.36-2.55.546-4.287.546h-3.933l-1.09 5.607h-4.594l4.1-21.086h8.83c2.657 0 4.594.696 5.814 2.093 1.22 1.39 1.59 3.336 1.103 5.836Zm-8.65-4.606h-3.143l-1.72 8.827h2.793c1.857 0 3.237-.35 4.14-1.047.907-.7 1.517-1.863 1.837-3.497.306-1.567.163-2.673-.417-3.317-.58-.643-1.747-.966-3.49-.966Z"/></symbol><symbol id="icon-psd" viewBox="0 0 119 117"><path d="M48.84 40.75c-1.835-.745-3.818-1.042-5.851-.992-1.29 0-2.43 0-3.372.05-.992-.05-1.686 0-2.033.049v16.66c.694.05 1.339.099 1.934.099h2.628c1.934 0 3.867-.298 5.702-.893 1.587-.446 2.975-1.388 4.066-2.628 1.041-1.24 1.537-2.925 1.537-5.107a8.16 8.16 0 0 0-1.14-4.413 7.189 7.189 0 0 0-3.471-2.826ZM97.927.486H21.073C9.42.487 0 9.908 0 21.56v73.875c0 11.652 9.42 21.073 21.073 21.073h76.854c11.652 0 21.073-9.421 21.073-21.073V21.56C119 9.908 109.579.487 97.927.487ZM61.28 58.252c-1.978 2.777-4.755 4.86-7.978 6.05-3.372 1.239-7.09 1.685-11.156 1.685-1.19 0-1.983 0-2.48-.05-.495-.05-1.19-.05-2.131-.05V81.8c.05.347-.199.65-.546.7H27.37c-.397 0-.595-.204-.595-.65V30.832c0-.347.149-.545.496-.545.843 0 1.636 0 2.776-.05 1.19-.05 2.43-.05 3.769-.099 1.339-.05 2.776-.05 4.314-.099 1.537-.05 3.024-.05 4.512-.05 4.066 0 7.437.496 10.214 1.538a17.69 17.69 0 0 1 6.644 4.066 15.788 15.788 0 0 1 3.62 5.652c.738 2.083 1.135 4.215 1.135 6.446.005 4.264-.987 7.784-2.975 10.561ZM96.44 77.54a12.53 12.53 0 0 1-5.554 4.418c-2.43 1.036-5.404 1.577-8.98 1.577-2.275 0-4.511-.194-6.738-.64a20.203 20.203 0 0 1-5.057-1.587c-.347-.193-.6-.54-.55-.937v-8.627c0-.144.054-.347.203-.447.144-.099.297-.05.446.05a21.088 21.088 0 0 0 6.148 2.43 23.07 23.07 0 0 0 5.851.743c1.884 0 3.223-.252 4.116-.699.793-.347 1.338-1.19 1.338-2.082 0-.7-.396-1.339-1.19-1.984-.793-.64-2.424-1.383-4.854-2.335a30.617 30.617 0 0 1-7.04-3.565 13.017 13.017 0 0 1-3.774-4.215 10.7 10.7 0 0 1-1.136-5.062c0-2.132.596-4.165 1.691-6 1.24-1.983 3.07-3.57 5.202-4.561 2.325-1.185 5.25-1.73 8.77-1.73 2.034 0 4.116.148 6.15.446 1.487.198 2.925.595 4.263 1.14.194.05.397.248.496.446.05.198.1.397.1.595v8.082a.61.61 0 0 1-.248.496c-.447.1-.695.1-.893 0-1.487-.793-3.074-1.339-4.76-1.686-1.835-.396-3.67-.644-5.553-.644-.992-.05-2.033.099-2.98.347-.64.148-1.19.496-1.537.991a2.628 2.628 0 0 0-.397 1.34c0 .445.198.892.5 1.288.447.546 1.037.992 1.687 1.34 1.135.594 2.33 1.14 3.515 1.635a35.837 35.837 0 0 1 7.64 3.62 11.442 11.442 0 0 1 3.913 4.115 10.672 10.672 0 0 1 1.14 5.102 11.51 11.51 0 0 1-1.928 6.6Z"/></symbol><symbol id="icon-telephone" viewBox="0 0 24 24"><path d="M4.827 10.387a20.198 20.198 0 0 0 8.786 8.786l2.934-2.933c.36-.36.893-.48 1.36-.32a15.21 15.21 0 0 0 4.76.76c.733 0 1.333.6 1.333 1.333v4.654C24 23.4 23.4 24 22.667 24 10.147 24 0 13.853 0 1.333 0 .6.6 0 1.333 0H6c.733 0 1.333.6 1.333 1.333 0 1.667.267 3.267.76 4.76.147.467.04.987-.333 1.36l-2.933 2.934Z"/></symbol><symbol id="icon-vscode" viewBox="0 0 144 144"><path d="M1.368 50.22s-3.504-2.562.702-5.97l9.81-8.868s2.802-2.982 5.772-.384l90.486 69.252v33.204s-.042 5.22-6.66 4.644L1.362 50.214l.006.006Z"/><path d="M24.696 71.622 1.368 93.054s-2.4 1.8 0 5.022l10.83 9.96s2.574 2.79 6.372-.39l24.726-18.948-18.6-17.076Zm40.944.174 42.78-33.012-.282-33.03s-1.83-7.212-7.92-3.456L43.296 54.66 65.64 71.796Z"/><path d="M101.472 142.14c2.484 2.568 5.496 1.728 5.496 1.728l33.336-16.602c4.266-2.94 3.666-6.588 3.666-6.588v-99.15c0-4.356-4.41-5.862-4.41-5.862L110.664 1.584c-6.312-3.942-10.446.714-10.446.714s5.316-3.87 7.92 3.456v131.1c0 .9-.192 1.782-.57 2.58-.762 1.554-2.412 3-6.372 2.4l.276.306Z"/></symbol></svg>