<svg xmlns="http://www.w3.org/2000/svg"><symbol id="icon-logo" viewBox="0 0 166 166"><mask id="a"><path d="M130.224 43.424c-2.048 1.152-2.944 2.944-2.944 7.552v72.576c0 4.48.896 6.4 2.944 7.552V132h-15.872v-.896c1.92-1.152 2.944-3.072 2.944-7.552V46.24l-35.328 61.184h-1.152L44.208 51.616v65.024c0 5.504 3.84 12.288 8.064 14.464V132H35.12v-.896c4.224-2.176 8.064-8.96 8.064-14.464V50.336l-5.76-7.936h11.52L85.68 99.104 118.32 42.4h11.904v1.024Z"/><path d="M166 83c0 45.84-37.16 83-83 83S0 128.84 0 83 37.16 0 83 0s83 37.16 83 83Z"/></mask><path d="m130.224 43.424.49.872.51-.287v-.585h-1Zm0 87.68h1v-.585l-.51-.287-.49.872Zm0 .896v1h1v-1h-1Zm-15.872 0h-1v1h1v-1Zm0-.896-.514-.857-.486.291v.566h1Zm2.944-84.864h1v-3.732l-1.866 3.232.866.5Zm-35.328 61.184v1h.577l.289-.5-.866-.5Zm-1.152 0-.836.548.296.452h.54v-1ZM44.208 51.616l.836-.548-1.836-2.8v3.348h1Zm8.064 79.488h1v-.61l-.542-.279-.458.889Zm0 .896v1h1v-1h-1Zm-17.152 0h-1v1h1v-1Zm0-.896-.458-.889-.542.279v.61h1Zm8.064-80.768h1v-.325l-.19-.262-.81.587Zm-5.76-7.936v-1h-1.961l1.152 1.587.809-.587Zm11.52 0 .84-.544-.296-.456h-.544v1ZM85.68 99.104l-.84.544.89 1.373.817-1.418-.867-.499ZM118.32 42.4v-1h-.578l-.289.501.867.499Zm11.904 0h1v-1h-1v1Zm-.49.152c-1.192.67-2.098 1.567-2.675 2.972-.555 1.35-.779 3.106-.779 5.452h2c0-2.262.224-3.706.629-4.692.383-.931.949-1.507 1.805-1.988l-.98-1.744Zm-3.454 8.424v72.576h2V50.976h-2Zm0 72.576c0 2.286.225 4.038.777 5.4.572 1.41 1.471 2.345 2.677 3.024l.98-1.744c-.842-.473-1.415-1.074-1.803-2.032-.408-1.006-.631-2.454-.631-4.648h-2Zm2.944 7.552V132h2v-.896h-2Zm1-.104h-15.872v2h15.872v-2Zm-15.872 1h1v-.896h-2V132h1Zm.515-.039c1.126-.676 2.014-1.602 2.599-2.999.57-1.358.83-3.109.83-5.41h-2c0 2.179-.252 3.628-.674 4.638-.407.971-.991 1.581-1.784 2.057l1.029 1.714Zm3.429-8.409V46.24h-2v77.312h2ZM116.43 45.74l-35.328 61.184 1.732 1 35.328-61.184-1.732-1Zm-34.462 60.684h-1.152v2h1.152v-2Zm-.316.452L45.044 51.067l-1.672 1.097 36.608 55.808 1.672-1.096Zm-38.444-55.26v65.024h2V51.616h-2Zm0 65.024c0 2.964 1.026 6.204 2.576 8.969 1.543 2.754 3.682 5.174 6.03 6.384l.916-1.778c-1.876-.966-3.769-3.026-5.202-5.584-1.426-2.547-2.32-5.451-2.32-7.991h-2Zm8.064 14.464V132h2v-.896h-2Zm1-.104H35.12v2h17.152v-2Zm-17.152 1h1v-.896h-2V132h1Zm.458-.007c2.348-1.21 4.487-3.63 6.03-6.384 1.55-2.765 2.576-6.005 2.576-8.969h-2c0 2.54-.893 5.444-2.32 7.991-1.433 2.558-3.326 4.618-5.202 5.584l.916 1.778Zm8.606-15.353V50.336h-2v66.304h2Zm-.19-66.891-5.76-7.936-1.62 1.174 5.76 7.936 1.62-1.174Zm-6.57-6.349h11.52v-2h-11.52v2Zm10.68-.456 36.737 56.704 1.678-1.088-36.736-56.704-1.678 1.088Zm38.443 56.659 32.64-56.704-1.734-.998-32.64 56.704 1.734.998ZM118.32 43.4h11.904v-2H118.32v2Zm11.904-1h-1v1.024h2V42.4h-1ZM165 83c0 45.287-36.713 82-82 82v2c46.392 0 84-37.608 84-84h-2Zm-82 82c-45.287 0-82-36.713-82-82h-2c0 46.392 37.608 84 84 84v-2ZM1 83C1 37.713 37.713 1 83 1v-2C36.608-1-1 36.608-1 83h2ZM83 1c45.287 0 82 36.713 82 82h2c0-46.392-37.608-84-84-84v2Z" mask="url(#a)"/></symbol></svg>